<svg xmlns="http://www.w3.org/2000/svg" viewBox="0 0 100 100">
  <!-- Dolphin mid-leap: rostrum left, arched back, dorsal fin, flukes. -->
  <path d="M 10 62
           C 8 60 9 57 12 56
           C 20 50 30 44 40 40
           C 46 37 52 34 58 33
           C 57 27 59 21 64 18
           C 66 23 65 28 62 32
           C 72 32 81 36 86 43
           C 90 39 94 37 98 37
           C 96 42 93 46 89 49
           C 91 53 92 58 91 62
           C 87 60 84 56 82 52
           C 74 58 64 62 54 63
           C 38 65 20 65 11 63
           C 10 63 10 62 10 62 Z"/>
</svg>
